<svg id="svg" version="1.1" width="400" height="400" xmlns="http://www.w3.org/2000/svg" xmlns:xlink="http://www.w3.org/1999/xlink" style="display: block;"><g id="svgg"><path id="path0" d="M24.000 220.504 L 24.000 330.106 89.750 329.768 L 155.500 329.430 163.000 326.998 C 193.666 317.055,207.000 298.100,207.000 264.452 C 207.000 236.423,197.304 217.705,180.323 212.950 C 174.350 211.278,174.305 210.667,179.961 208.018 C 199.653 198.795,206.147 167.178,193.727 141.000 C 187.654 128.200,173.193 117.406,156.500 113.215 C 151.565 111.976,139.275 111.637,87.250 111.306 L 24.000 110.903 24.000 220.504 M251.000 139.000 L 251.000 153.000 297.000 153.000 L 343.000 153.000 343.000 139.000 L 343.000 125.000 297.000 125.000 L 251.000 125.000 251.000 139.000 M143.696 153.956 C 151.980 159.007,154.872 173.265,150.398 187.000 C 146.691 198.380,144.363 199.000,105.341 199.000 L 75.000 199.000 75.000 175.500 L 75.000 152.000 107.750 152.004 C 138.448 152.007,140.700 152.130,143.696 153.956 M283.000 167.922 C 272.556 169.181,263.957 172.103,252.837 178.169 C 244.241 182.859,229.042 198.539,229.010 202.750 C 229.004 203.438,228.636 204.000,228.191 204.000 C 227.201 204.000,221.835 215.669,219.685 222.500 C 202.581 276.840,227.612 323.996,278.371 333.059 C 331.399 342.527,373.802 319.105,373.976 280.250 L 374.000 275.000 354.615 275.000 L 335.230 275.000 333.552 280.132 C 330.263 290.186,324.918 294.735,313.303 297.368 C 287.067 303.316,266.071 291.456,263.521 269.250 L 262.804 263.000 318.841 263.000 L 374.877 263.000 375.557 258.470 C 376.678 250.991,375.019 231.289,372.416 221.170 C 362.059 180.915,330.604 162.183,283.000 167.922 M313.500 202.598 C 323.157 207.190,330.615 217.453,331.780 227.750 L 332.260 232.000 297.551 232.000 L 262.841 232.000 263.533 228.750 C 268.013 207.704,294.778 193.695,313.500 202.598 M144.195 235.177 C 163.243 240.884,165.710 277.628,147.692 287.259 C 143.621 289.435,142.511 289.509,109.250 289.810 L 75.000 290.120 75.000 262.060 L 75.000 234.000 107.634 234.000 C 129.765 234.000,141.532 234.379,144.195 235.177 " stroke="none" fill="#000000" fill-rule="evenodd"></path></g></svg>