<svg id="Layer_1" data-name="Layer 1" xmlns="http://www.w3.org/2000/svg" viewBox="0 0 504 504"><title>Artboard 1</title><path d="M65,253.06C64.89,149.16,149.25,64.81,253.11,65A187.87,187.87,0,0,1,441,252.91C441.08,356.8,356.66,441.21,252.85,441A187.83,187.83,0,0,1,65,253.06ZM165.85,370.48c42.5,33.11,101.07,36,139.1,19.11A713.46,713.46,0,0,0,276,282.69C228.55,298.95,192.8,328.91,165.85,370.48ZM264,251.39c-1.47-3.49-2.68-6.5-4-9.46s-2.17-7.72-4.5-8.75c-2.55-1.13-6.62,1-10,1.89-44.23,12.31-89.39,16.75-135.16,16-1.29,0-2.58,0-4.15,0,.18,36.5,11.55,68.24,34.68,96.24C171.81,302,212,269.41,264,251.39Zm-153.5-33.86c44.52.93,87.48-3.86,130-16.15-15.1-28.47-31.91-55.29-52.41-79.93C148.45,142.31,122.67,173.77,110.47,217.53Zm161.86-27.78C296.13,181.6,337,152.1,344.07,138c-36.3-27.51-76.66-37.35-122.3-28.35A536.33,536.33,0,0,1,272.32,189.75ZM337.06,373c31.85-23.06,52-53.84,59.93-92.63-15.74-6.78-70.11-9.79-86.8-5.22ZM297,243.12c34.29-6.26,68.23-4.17,102,2.8,1.59-23.4-15.44-68.71-31.13-83.08-22.4,25.32-49.82,43.72-80.73,57.42Z"/></svg>