<svg id="svg" version="1.1" width="400" height="400" xmlns="http://www.w3.org/2000/svg" xmlns:xlink="http://www.w3.org/1999/xlink" style="display: block;"><g id="svgg"><path id="path0" d="M96.500 80.875 C 61.024 90.304,72.236 140.891,108.847 136.588 C 145.749 132.251,144.375 82.208,107.306 80.448 C 103.013 80.244,98.150 80.436,96.500 80.875 M247.161 156.032 C 236.935 158.711,230.339 162.809,222.092 171.608 L 215.000 179.176 215.000 168.588 L 215.000 158.000 188.000 158.000 L 161.000 158.000 161.000 239.000 L 161.000 320.000 187.948 320.000 L 214.897 320.000 215.198 270.250 L 215.500 220.500 218.151 214.845 C 226.482 197.076,248.733 191.298,261.411 203.611 C 270.561 212.497,271.000 215.646,271.000 272.394 L 271.000 320.000 298.500 320.000 L 326.000 320.000 326.000 272.224 C 326.000 207.712,324.562 197.061,313.481 179.500 C 300.633 159.139,272.844 149.305,247.161 156.032 M78.000 239.000 L 78.000 320.000 105.000 320.000 L 132.000 320.000 132.000 239.000 L 132.000 158.000 105.000 158.000 L 78.000 158.000 78.000 239.000 " stroke="none" fill="#000000" fill-rule="evenodd"></path></g></svg>