<?xml version="1.0" standalone="no"?>
<!DOCTYPE svg PUBLIC "-//W3C//DTD SVG 20010904//EN"
 "http://www.w3.org/TR/2001/REC-SVG-20010904/DTD/svg10.dtd">
<svg version="1.0" xmlns="http://www.w3.org/2000/svg"
 width="626.000000pt" height="626.000000pt" viewBox="0 0 626.000000 626.000000"
 preserveAspectRatio="xMidYMid meet">

<g transform="translate(0.000000,626.000000) scale(0.100000,-0.100000)"
fill="#000000" stroke="none">
<path d="M4140 5658 c-136 -19 -332 -88 -452 -159 -134 -79 -301 -231 -396
-361 -102 -140 -195 -361 -223 -533 -16 -99 -16 -325 0 -424 6 -40 9 -76 6
-79 -10 -10 -348 28 -480 54 -265 51 -451 106 -690 201 -132 53 -418 193 -495
242 -276 178 -356 236 -520 377 -125 107 -246 226 -355 349 -48 55 -91 101
-95 103 -11 4 -85 -151 -109 -228 -48 -151 -63 -248 -62 -410 0 -164 10 -235
57 -390 69 -227 257 -495 437 -622 31 -23 57 -43 57 -46 0 -3 -37 -2 -82 2
-130 10 -265 47 -394 107 -46 21 -86 34 -89 30 -2 -5 0 -60 6 -122 42 -479
356 -898 806 -1075 45 -18 107 -38 138 -45 30 -7 55 -15 55 -19 0 -23 -294
-52 -405 -40 -44 5 -95 9 -114 9 -31 1 -33 -1 -26 -26 10 -43 105 -232 144
-288 123 -175 258 -300 428 -396 169 -96 353 -155 515 -166 48 -3 85 -10 82
-15 -12 -18 -155 -118 -259 -179 -317 -187 -641 -297 -1015 -344 -104 -14
-187 -16 -365 -13 l-232 4 81 -49 c99 -60 364 -195 466 -237 298 -124 687
-224 1015 -262 149 -17 688 -17 825 0 249 32 477 78 680 139 148 44 382 136
521 204 558 275 1028 689 1384 1224 56 83 80 122 143 230 61 106 196 395 245
525 95 253 149 446 192 685 37 210 46 297 52 558 l6 238 81 62 c98 74 273 242
366 353 92 107 180 228 170 232 -4 2 -35 -8 -67 -22 -170 -71 -498 -156 -607
-156 -27 0 -24 3 32 41 120 81 272 240 349 364 64 104 140 271 129 282 -3 3
-47 -18 -98 -45 -177 -96 -408 -183 -611 -231 -49 -12 -94 -18 -100 -14 -7 4
-46 37 -87 75 -175 159 -425 275 -663 307 -92 13 -285 12 -377 -1z"/>
</g>
</svg>
